<svg width="25" height="24" viewBox="0 0 25 24" fill="none" xmlns="http://www.w3.org/2000/svg">
<path d="M17.922 11.6202C17.8744 11.4974 17.803 11.3853 17.712 11.2902L12.712 6.29019C12.6187 6.19695 12.508 6.12299 12.3862 6.07253C12.2644 6.02207 12.1338 5.99609 12.002 5.99609C11.7357 5.99609 11.4803 6.10188 11.292 6.29019C11.1987 6.38342 11.1248 6.49411 11.0743 6.61594C11.0238 6.73776 10.9979 6.86833 10.9979 7.00019C10.9979 7.26649 11.1036 7.52188 11.292 7.71019L14.592 11.0002H7.00195C6.73674 11.0002 6.48238 11.1055 6.29485 11.2931C6.10731 11.4806 6.00195 11.735 6.00195 12.0002C6.00195 12.2654 6.10731 12.5198 6.29485 12.7073C6.48238 12.8948 6.73674 13.0002 7.00195 13.0002H14.592L11.292 16.2902C11.1982 16.3831 11.1238 16.4937 11.0731 16.6156C11.0223 16.7375 10.9962 16.8682 10.9962 17.0002C10.9962 17.1322 11.0223 17.2629 11.0731 17.3848C11.1238 17.5066 11.1982 17.6172 11.292 17.7102C11.3849 17.8039 11.4955 17.8783 11.6174 17.9291C11.7392 17.9798 11.8699 18.006 12.002 18.006C12.134 18.006 12.2647 17.9798 12.3865 17.9291C12.5084 17.8783 12.619 17.8039 12.712 17.7102L17.712 12.7102C17.803 12.6151 17.8744 12.5029 17.922 12.3802C18.022 12.1367 18.022 11.8636 17.922 11.6202Z" fill="#2C3136"/>
</svg>
