<svg width="25" height="24" viewBox="0 0 25 24" fill="none" xmlns="http://www.w3.org/2000/svg">
<path d="M17.0028 11.0002H9.41283L12.7128 7.71019C12.9011 7.52188 13.0069 7.26649 13.0069 7.00019C13.0069 6.73388 12.9011 6.47849 12.7128 6.29019C12.5245 6.10188 12.2691 5.99609 12.0028 5.99609C11.7365 5.99609 11.4811 6.10188 11.2928 6.29019L6.29283 11.2902C6.20179 11.3853 6.13042 11.4974 6.08283 11.6202C5.98281 11.8636 5.98281 12.1367 6.08283 12.3802C6.13042 12.5029 6.20179 12.6151 6.29283 12.7102L11.2928 17.7102C11.3858 17.8039 11.4964 17.8783 11.6182 17.9291C11.7401 17.9798 11.8708 18.006 12.0028 18.006C12.1348 18.006 12.2655 17.9798 12.3874 17.9291C12.5093 17.8783 12.6199 17.8039 12.7128 17.7102C12.8066 17.6172 12.8809 17.5066 12.9317 17.3848C12.9825 17.2629 13.0086 17.1322 13.0086 17.0002C13.0086 16.8682 12.9825 16.7375 12.9317 16.6156C12.8809 16.4937 12.8066 16.3831 12.7128 16.2902L9.41283 13.0002H17.0028C17.268 13.0002 17.5224 12.8948 17.7099 12.7073C17.8975 12.5198 18.0028 12.2654 18.0028 12.0002C18.0028 11.735 17.8975 11.4806 17.7099 11.2931C17.5224 11.1055 17.268 11.0002 17.0028 11.0002Z" fill="#2C3136"/>
</svg>
