<svg width="41" height="40" viewBox="0 0 41 40" fill="none" xmlns="http://www.w3.org/2000/svg">
<path d="M15.1602 16.9907C16.3168 18.8755 17.1368 20.427 18.3746 22.2595C18.6919 22.7293 20.1852 25.1328 21.0887 24.8746C22.15 24.5714 23.5806 21.1533 24.022 20.3195C26.7102 15.2418 32.0872 7.93795 36.6907 4.48535" stroke="#2EA0C5" stroke-width="4" stroke-linecap="round"/>
<path d="M35.7109 14.7701C36.2298 16.1064 36.2736 17.2882 36.4143 18.786C37.2328 27.5002 30.755 34.7051 22.0408 35.5236C13.3266 36.3421 5.67586 30.4643 4.85736 21.7501C3.6377 12.8155 9.92246 5.02251 19.1538 4.4896C21.3694 4.28149 23.5213 4.54008 25.5121 5.18474" stroke="#2EA0C5" stroke-width="4" stroke-linecap="round"/>
</svg>
