<svg width="336" height="49" viewBox="0 0 336 49" fill="none" xmlns="http://www.w3.org/2000/svg">
<path d="M53.1139 2.84204C95.3518 1.39012 137.688 3.76333 179.926 4.34615C227.856 5.00753 276.896 14.6978 324.885 12.2984C365.487 10.2683 243.598 10.4094 202.947 10.1699C144.021 9.82277 89.9579 5.3847 31.2572 12.9778C25.3245 13.7452 12.3473 15.9536 6.62377 17.8996C5.27985 18.3565 1.91263 19.9964 3.02105 20.8831C5.82408 23.1256 32.4654 19.8831 62.5828 18.804C124.724 16.5774 154.092 17.2116 216.205 19.8831C224.7 20.2485 199.567 23.3975 191.224 25.0363C185.315 26.1968 180.969 27.0777 175.09 28.3605C173.154 28.7828 167.727 29.6162 165.962 30.9736C164.583 32.0345 171.741 32.7551 172.202 32.7551" stroke="#2C3136" stroke-width="4" stroke-linecap="round"/>
</svg>
