<svg width="405" height="49" viewBox="0 0 405 49" fill="none" xmlns="http://www.w3.org/2000/svg">
<path d="M12.3519 2.43359C139.573 5.92072 267.023 0.973154 394.209 3.50302C433.432 4.28321 315.758 4.99444 276.531 5.72412C197.4 7.19611 117.104 7.57048 38.358 13.0456C33.3145 13.3962 14.4409 15.4505 7.29513 16.5829C1.34872 17.5251 2.10267 18.3024 7.29513 19.1742C31.258 23.1974 57.5991 23.3588 82.2795 23.7398C158.615 24.9182 235.073 24.3595 311.423 23.9454C321.814 23.8891 317.202 23.8529 311.134 24.0688C292.291 24.7394 273.494 25.9309 254.787 27.3594C227.648 29.4317 197.845 30.8749 171.712 35.9147C164.939 37.2208 179.726 36.5433 181.392 36.4906" stroke="#2C3136" stroke-width="4" stroke-linecap="round"/>
</svg>
