<svg width="149" height="27" viewBox="0 0 149 27" fill="none" xmlns="http://www.w3.org/2000/svg">
<path d="M2.60547 3.15053C24.4711 3.15053 46.2046 1.63118 68.1054 2.34511C93.9528 3.18769 119.807 5.09096 145.45 8.48054C149.717 9.04455 136.866 7.78299 132.563 7.67512C101.359 6.89284 70.3406 8.38453 39.2286 10.6362C32.8079 11.1009 27.2924 11.5283 21.0355 12.1523C20.0375 12.2519 18.9818 12.1589 18.0507 12.5314C17.522 12.7428 19.197 12.519 19.7563 12.6261C25.2242 13.6732 30.9037 13.5379 36.457 13.2657C43.8969 12.901 51.2342 11.6256 58.7009 11.6549C66.7048 11.6862 74.7087 12.7023 82.6741 13.3842C92.2157 14.201 101.714 15.0093 111.29 15.0898C112.726 15.1018 113.988 15.151 115.175 15.9426" stroke="#2C3136" stroke-width="4" stroke-linecap="round"/>
</svg>
