<svg width="332" height="51" viewBox="0 0 332 51" fill="none" xmlns="http://www.w3.org/2000/svg">
<path d="M179.093 3.09859C207.356 1.99552 235.882 2.00034 264.169 2.39897C307.401 3.00821 177.704 3.80859 134.49 5.3529C113.592 6.09973 92.8459 6.59404 71.9521 5.50836C67.8632 5.2959 60.2354 4.77606 55.7761 4.65328C54.6851 4.62324 51.5353 4.59744 52.5274 5.11969C57.7988 7.89464 65.0631 8.35289 70.6661 9.1619C100.527 13.4734 130.69 12.4885 160.683 15.0148C212.681 19.3945 264.854 23.1045 316.623 30.4063C320.981 31.0211 325.451 31.2989 329.618 32.8938C330.265 33.1418 328.27 33.2112 327.587 33.2048C320.869 33.1415 314.171 31.3939 307.553 30.3286C278.416 25.6377 249.092 22.0382 219.702 20.3008C177.523 17.8074 135.279 18.7412 93.1366 21.6223C67.0214 23.4076 40.6374 25.4533 14.7608 30.0954C10.9113 30.786 -0.460631 32.5243 3.39021 33.2048C6.30247 33.7194 9.26576 34.0875 12.1889 34.604" stroke="#2C3136" stroke-width="4" stroke-linecap="round"/>
</svg>
