<svg width="24" height="25" viewBox="0 0 24 25" fill="none" xmlns="http://www.w3.org/2000/svg">
<path d="M23 10.6875C23.0495 9.25618 22.7365 7.83554 22.09 6.55752C21.6514 6.03312 21.0427 5.67923 20.37 5.55752C17.5875 5.30505 14.7936 5.20157 12 5.24752C9.21667 5.19948 6.43274 5.29962 3.66003 5.54752C3.11185 5.64724 2.60454 5.90437 2.20003 6.28752C1.30003 7.11752 1.20003 8.53752 1.10003 9.73752C0.954939 11.8951 0.954939 14.06 1.10003 16.2175C1.12896 16.8929 1.22952 17.5634 1.40003 18.2175C1.5206 18.7226 1.76455 19.1899 2.11003 19.5775C2.51729 19.981 3.03641 20.2527 3.60003 20.3575C5.75594 20.6236 7.92824 20.7339 10.1 20.6875C13.6 20.7375 16.67 20.6875 20.3 20.4075C20.8775 20.3092 21.4112 20.0371 21.83 19.6275C22.11 19.3474 22.3191 19.0046 22.44 18.6275C22.7977 17.5301 22.9733 16.3816 22.96 15.2275C23 14.6675 23 11.2875 23 10.6875ZM9.74003 15.8275V9.63752L15.66 12.7475C14 13.6675 11.81 14.7075 9.74003 15.8275Z" fill="#2EA0C5"/>
</svg>
