<svg width="24" height="25" viewBox="0 0 24 25" fill="none" xmlns="http://www.w3.org/2000/svg">
<path d="M12 10.4975C11.5095 10.4975 11.03 10.643 10.6222 10.9155C10.2144 11.188 9.89648 11.5753 9.70878 12.0285C9.52107 12.4816 9.47196 12.9803 9.56765 13.4614C9.66334 13.9424 9.89954 14.3843 10.2464 14.7312C10.5932 15.078 11.0351 15.3142 11.5162 15.4099C11.9972 15.5056 12.4959 15.4565 12.9491 15.2688C13.4022 15.0811 13.7895 14.7632 14.062 14.3554C14.3346 13.9475 14.48 13.468 14.48 12.9775C14.48 12.6519 14.4159 12.3294 14.2912 12.0285C14.1666 11.7276 13.9839 11.4542 13.7536 11.2239C13.5233 10.9936 13.2499 10.8109 12.9491 10.6863C12.6482 10.5617 12.3257 10.4975 12 10.4975ZM21.93 8.04754C21.9247 7.2753 21.7825 6.51011 21.51 5.78754C21.3093 5.2588 20.9987 4.77863 20.5988 4.37872C20.1989 3.97882 19.7187 3.66826 19.19 3.46754C18.4674 3.195 17.7022 3.0528 16.93 3.04754C15.64 2.97754 15.26 2.97754 12 2.97754C8.74 2.97754 8.36 2.97754 7.07 3.04754C6.29776 3.0528 5.53257 3.195 4.81 3.46754C4.28126 3.66826 3.80109 3.97882 3.40119 4.37872C3.00128 4.77863 2.69072 5.2588 2.49 5.78754C2.21746 6.51011 2.07526 7.2753 2.07 8.04754C2 9.33754 2 9.71754 2 12.9775C2 16.2375 2 16.6175 2.07 17.9075C2.08076 18.6825 2.22277 19.45 2.49 20.1775C2.68983 20.7039 3.00013 21.1812 3.4 21.5775C3.79819 21.9798 4.27939 22.2904 4.81 22.4875C5.53257 22.7601 6.29776 22.9023 7.07 22.9075C8.36 22.9775 8.74 22.9775 12 22.9775C15.26 22.9775 15.64 22.9775 16.93 22.9075C17.7022 22.9023 18.4674 22.7601 19.19 22.4875C19.7206 22.2904 20.2018 21.9798 20.6 21.5775C20.9999 21.1812 21.3102 20.7039 21.51 20.1775C21.7823 19.4514 21.9244 18.683 21.93 17.9075C22 16.6175 22 16.2375 22 12.9775C22 9.71754 22 9.33754 21.93 8.04754ZM19.39 16.0475C19.3579 16.6646 19.2262 17.2725 19 17.8475C18.8059 18.3272 18.5173 18.763 18.1514 19.1289C17.7854 19.4948 17.3497 19.7834 16.87 19.9775C16.2895 20.1911 15.6783 20.3093 15.06 20.3275H8.94C8.32173 20.3093 7.71049 20.1911 7.13 19.9775C6.6341 19.7933 6.18628 19.4993 5.82 19.1175C5.45767 18.7588 5.17784 18.3254 5 17.8475C4.78556 17.2677 4.67061 16.6557 4.66 16.0375V9.91754C4.67061 9.29936 4.78556 8.68742 5 8.10754C5.18428 7.61164 5.47827 7.16382 5.86 6.79754C6.22033 6.43716 6.65326 6.15763 7.13 5.97754C7.71049 5.76394 8.32173 5.64575 8.94 5.62754H15.06C15.6783 5.64575 16.2895 5.76394 16.87 5.97754C17.3659 6.16182 17.8137 6.45581 18.18 6.83754C18.5423 7.19629 18.8222 7.62967 19 8.10754C19.2136 8.68803 19.3318 9.29927 19.35 9.91754V12.9775C19.35 15.0375 19.42 15.2475 19.39 16.0375V16.0475ZM17.79 8.60754C17.6709 8.28452 17.4832 7.99118 17.2398 7.74775C16.9964 7.50432 16.703 7.3166 16.38 7.19754C15.9365 7.0438 15.4693 6.96933 15 6.97754H9C8.52827 6.98215 8.06107 7.07017 7.62 7.23754C7.30193 7.3512 7.01169 7.53125 6.76858 7.76574C6.52547 8.00023 6.33506 8.28378 6.21 8.59754C6.06478 9.04291 5.99383 9.50913 6 9.97754V15.9775C6.00991 16.4487 6.09777 16.915 6.26 17.3575C6.37906 17.6806 6.56678 17.9739 6.81021 18.2173C7.05364 18.4608 7.34698 18.6485 7.67 18.7675C8.09667 18.9245 8.54565 19.0122 9 19.0275H15C15.4717 19.0229 15.9389 18.9349 16.38 18.7675C16.703 18.6485 16.9964 18.4608 17.2398 18.2173C17.4832 17.9739 17.6709 17.6806 17.79 17.3575C17.9574 16.9165 18.0454 16.4493 18.05 15.9775V9.97754C18.0503 9.50534 17.9621 9.03726 17.79 8.59754V8.60754ZM12 16.7975C11.4988 16.7975 11.0026 16.6987 10.5397 16.5066C10.0768 16.3145 9.6563 16.0329 9.30238 15.6781C8.94846 15.3232 8.66803 14.902 8.47714 14.4386C8.28626 13.9752 8.18868 13.4787 8.19 12.9775C8.19 12.2216 8.4143 11.4826 8.83449 10.8542C9.25468 10.2258 9.85187 9.7362 10.5505 9.44737C11.2491 9.15854 12.0177 9.08348 12.7589 9.23169C13.5002 9.3799 14.1808 9.74471 14.7147 10.2799C15.2485 10.8152 15.6116 11.4968 15.7578 12.2384C15.9041 12.9801 15.827 13.7485 15.5363 14.4463C15.2457 15.1442 14.7545 15.7401 14.125 16.1586C13.4955 16.5772 12.7559 16.7995 12 16.7975ZM16 9.90754C15.7789 9.88414 15.5744 9.77976 15.4257 9.61451C15.277 9.44926 15.1947 9.23483 15.1947 9.01254C15.1947 8.79025 15.277 8.57582 15.4257 8.41057C15.5744 8.24532 15.7789 8.14094 16 8.11754C16.2211 8.14094 16.4256 8.24532 16.5743 8.41057C16.723 8.57582 16.8053 8.79025 16.8053 9.01254C16.8053 9.23483 16.723 9.44926 16.5743 9.61451C16.4256 9.77976 16.2211 9.88414 16 9.90754Z" fill="#2EA0C5"/>
</svg>
