<svg width="153" height="32" viewBox="0 0 153 32" fill="none" xmlns="http://www.w3.org/2000/svg">
<path d="M6 6C6 4.93913 6.42143 3.92172 7.17157 3.17157C7.92172 2.42143 8.93913 2 10 2C11.0609 2 12.0783 2.42143 12.8284 3.17157C13.5786 3.92172 14 4.93913 14 6C14 7.06087 13.5786 8.07828 12.8284 8.82843C12.0783 9.57857 11.0609 10 10 10C8.93913 10 7.92172 9.57857 7.17157 8.82843C6.42143 8.07828 6 7.06087 6 6V6ZM19.558 9.168L19.642 9.232C20.4906 9.86101 21.5535 10.1288 22.5989 9.97702C23.6442 9.82521 24.587 9.26609 25.2216 8.42167C25.8562 7.57725 26.1311 6.51611 25.9861 5.4698C25.8412 4.42349 25.2883 3.47698 24.4481 2.83682C23.6079 2.19666 22.5486 1.91483 21.5014 2.05283C20.4541 2.19084 19.504 2.73746 18.8583 3.57343C18.2126 4.40939 17.9238 5.46682 18.0549 6.51495C18.186 7.56308 18.7263 8.51681 19.558 9.168V9.168ZM12.536 12C12.7872 11.5243 13.1318 11.1042 13.5491 10.7648C13.9664 10.4254 14.4479 10.1736 14.9648 10.0245C15.4816 9.87549 16.0233 9.83223 16.5572 9.89734C17.0912 9.96246 17.6066 10.1346 18.0725 10.4035C18.5384 10.6724 18.9453 11.0325 19.2688 11.4622C19.5923 11.892 19.8258 12.3826 19.9554 12.9047C20.0849 13.4268 20.1078 13.9697 20.0227 14.5008C19.9376 15.032 19.7462 15.5405 19.46 15.996C18.9094 16.8723 18.0407 17.501 17.0363 17.7502C16.0319 17.9994 14.97 17.8497 14.0737 17.3324C13.1773 16.8151 12.5164 15.9706 12.2297 14.9762C11.9429 13.9819 12.0527 12.9151 12.536 12V12ZM5 12H10.34C9.98455 13.0151 9.90726 14.1069 10.1162 15.1619C10.3251 16.217 10.8125 17.1969 11.528 18H11C9.96887 17.9999 8.9629 18.3184 8.11977 18.912C7.27664 19.5056 6.63756 20.3452 6.29 21.316C5.61867 21.0463 4.9901 20.6805 4.424 20.23C2.92 19.02 2 17.232 2 15C2 14.2044 2.31607 13.4413 2.87868 12.8787C3.44129 12.3161 4.20435 12 5 12V12ZM21 18C22.0309 18 23.0365 18.3186 23.8793 18.9122C24.7221 19.5058 25.3608 20.3454 25.708 21.316C26.388 21.038 27.018 20.676 27.576 20.23C29.08 19.02 30 17.232 30 15C30 14.2044 29.6839 13.4413 29.1213 12.8787C28.5587 12.3161 27.7956 12 27 12H21.66C21.88 12.626 22 13.3 22 14C22.0018 15.4762 21.4576 16.901 20.472 18H21ZM23.774 21.856C23.92 22.208 24 22.596 24 23C24 25.232 23.082 27.02 21.576 28.23C20.094 29.42 18.106 30 16 30C13.894 30 11.906 29.42 10.424 28.23C8.92 27.02 8 25.232 8 23C7.99894 22.6057 8.07582 22.2152 8.22621 21.8507C8.3766 21.4862 8.59754 21.1551 8.87633 20.8763C9.15511 20.5975 9.48625 20.3766 9.8507 20.2262C10.2152 20.0758 10.6057 19.9989 11 20H21C21.5942 19.9999 22.1751 20.1762 22.6689 20.5066C23.1628 20.837 23.5474 21.3067 23.774 21.856Z" fill="#2EA0C5"/>
<path d="M55.1994 8.258L49.9704 23H45.4764L40.2474 8.258H44.0694L47.7234 19.388L51.3984 8.258H55.1994ZM62.6222 23.147C61.2362 23.147 59.9622 22.825 58.8002 22.181C57.6522 21.537 56.7352 20.641 56.0492 19.493C55.3772 18.331 55.0412 17.029 55.0412 15.587C55.0412 14.145 55.3772 12.85 56.0492 11.702C56.7352 10.554 57.6522 9.658 58.8002 9.014C59.9622 8.37 61.2362 8.048 62.6222 8.048C64.0082 8.048 65.2752 8.37 66.4232 9.014C67.5852 9.658 68.4952 10.554 69.1532 11.702C69.8252 12.85 70.1612 14.145 70.1612 15.587C70.1612 17.029 69.8252 18.331 69.1532 19.493C68.4812 20.641 67.5712 21.537 66.4232 22.181C65.2752 22.825 64.0082 23.147 62.6222 23.147ZM62.6222 19.871C63.7982 19.871 64.7362 19.479 65.4362 18.695C66.1502 17.911 66.5072 16.875 66.5072 15.587C66.5072 14.285 66.1502 13.249 65.4362 12.479C64.7362 11.695 63.7982 11.303 62.6222 11.303C61.4322 11.303 60.4802 11.688 59.7662 12.458C59.0662 13.228 58.7162 14.271 58.7162 15.587C58.7162 16.889 59.0662 17.932 59.7662 18.716C60.4802 19.486 61.4322 19.871 62.6222 19.871ZM74.7 20.228H79.404V23H71.109V8.258H74.7V20.228ZM83.5948 8.258V17.078C83.5948 17.96 83.8118 18.639 84.2458 19.115C84.6798 19.591 85.3168 19.829 86.1568 19.829C86.9968 19.829 87.6408 19.591 88.0888 19.115C88.5368 18.639 88.7608 17.96 88.7608 17.078V8.258H92.3518V17.057C92.3518 18.373 92.0718 19.486 91.5118 20.396C90.9518 21.306 90.1958 21.992 89.2438 22.454C88.3058 22.916 87.2558 23.147 86.0938 23.147C84.9318 23.147 83.8888 22.923 82.9648 22.475C82.0548 22.013 81.3338 21.327 80.8018 20.417C80.2698 19.493 80.0038 18.373 80.0038 17.057V8.258H83.5948ZM107.011 23H103.42L97.4145 13.907V23H93.8235V8.258H97.4145L103.42 17.393V8.258H107.011V23ZM119.169 8.258V11.135H115.263V23H111.672V11.135H107.766V8.258H119.169ZM123.513 11.135V14.117H128.322V16.889H123.513V20.123H128.952V23H119.922V8.258H128.952V11.135H123.513ZM133.824 11.135V14.117H138.633V16.889H133.824V20.123H139.263V23H130.233V8.258H139.263V11.135H133.824ZM148.062 23L144.996 17.435H144.135V23H140.544V8.258H146.571C147.733 8.258 148.72 8.461 149.532 8.867C150.358 9.273 150.974 9.833 151.38 10.547C151.786 11.247 151.989 12.031 151.989 12.899C151.989 13.879 151.709 14.754 151.149 15.524C150.603 16.294 149.791 16.84 148.713 17.162L152.115 23H148.062ZM144.135 14.894H146.361C147.019 14.894 147.509 14.733 147.831 14.411C148.167 14.089 148.335 13.634 148.335 13.046C148.335 12.486 148.167 12.045 147.831 11.723C147.509 11.401 147.019 11.24 146.361 11.24H144.135V14.894Z" fill="#2C3136"/>
</svg>
