<svg width="24" height="25" viewBox="0 0 24 25" fill="none" xmlns="http://www.w3.org/2000/svg">
<path d="M16.9997 9.38625C16.8123 9.2 16.5589 9.09546 16.2947 9.09546C16.0305 9.09546 15.7771 9.2 15.5897 9.38625L11.9997 12.9263L8.4597 9.38625C8.27234 9.2 8.01889 9.09546 7.7547 9.09546C7.49052 9.09546 7.23707 9.2 7.0497 9.38625C6.95598 9.47921 6.88158 9.58982 6.83081 9.71167C6.78004 9.83353 6.75391 9.96424 6.75391 10.0963C6.75391 10.2283 6.78004 10.359 6.83081 10.4808C6.88158 10.6027 6.95598 10.7133 7.0497 10.8063L11.2897 15.0463C11.3827 15.14 11.4933 15.2144 11.6151 15.2651C11.737 15.3159 11.8677 15.342 11.9997 15.342C12.1317 15.342 12.2624 15.3159 12.3843 15.2651C12.5061 15.2144 12.6167 15.14 12.7097 15.0463L16.9997 10.8063C17.0934 10.7133 17.1678 10.6027 17.2186 10.4808C17.2694 10.359 17.2955 10.2283 17.2955 10.0963C17.2955 9.96424 17.2694 9.83353 17.2186 9.71167C17.1678 9.58982 17.0934 9.47921 16.9997 9.38625Z" fill="#2EA0C5"/>
</svg>
