<svg width="152" height="152" viewBox="0 0 152 152" fill="none" xmlns="http://www.w3.org/2000/svg">
<path d="M88.099 5.47003C127.052 5.47003 148.482 37.0474 148.482 76C148.482 114.953 127.052 146.53 88.099 146.53C49.1463 146.53 3.51953 129.762 3.51953 90.8095C3.51953 51.8569 49.1463 5.47003 88.099 5.47003Z" fill="#E8F0FD"/>
<path d="M59.612 91.952C63.7507 88.7093 67.1427 85.9147 69.788 83.568C72.4333 81.2213 74.652 78.8107 76.444 76.336C78.236 73.8187 79.132 71.4293 79.132 69.168C79.132 67.8027 78.812 66.736 78.172 65.968C77.5747 65.2 76.6787 64.816 75.484 64.816C74.2467 64.816 73.2867 65.3493 72.604 66.416C71.9213 67.44 71.6013 68.9547 71.644 70.96H59.484C59.612 67.1627 60.444 64.0267 61.98 61.552C63.516 59.0347 65.5213 57.2 67.996 56.048C70.4707 54.8533 73.2227 54.256 76.252 54.256C81.5 54.256 85.404 55.5573 87.964 58.16C90.524 60.7627 91.804 64.1333 91.804 68.272C91.804 72.7093 90.3107 76.8693 87.324 80.752C84.38 84.6347 80.6893 88.112 76.252 91.184H92.252V101.36H59.612V91.952Z" fill="#2EA0C5"/>
</svg>
