<svg width="152" height="152" viewBox="0 0 152 152" fill="none" xmlns="http://www.w3.org/2000/svg">
<path d="M88.099 5.47003C127.052 5.47003 148.482 37.0474 148.482 76C148.482 114.953 127.052 146.53 88.099 146.53C49.1463 146.53 3.51953 129.762 3.51953 90.8095C3.51953 51.8569 49.1463 5.47003 88.099 5.47003Z" fill="#E8F0FD"/>
<path d="M60.072 69.168C60.2427 64.3467 61.736 60.656 64.552 58.096C67.368 55.4933 71.2933 54.192 76.328 54.192C79.6133 54.192 82.408 54.768 84.712 55.92C87.0587 57.0293 88.8293 58.5653 90.024 60.528C91.2187 62.448 91.816 64.624 91.816 67.056C91.816 69.9573 91.112 72.2827 89.704 74.032C88.296 75.7387 86.696 76.8907 84.904 77.488V77.744C90.0667 79.664 92.648 83.3333 92.648 88.752C92.648 91.44 92.0293 93.808 90.792 95.856C89.5547 97.904 87.7627 99.504 85.416 100.656C83.0693 101.808 80.2747 102.384 77.032 102.384C71.6987 102.384 67.4747 101.104 64.36 98.544C61.288 95.9413 59.688 91.9733 59.56 86.64H71.784C71.6987 88.3467 72.0613 89.6693 72.872 90.608C73.6827 91.5467 74.8987 92.016 76.52 92.016C77.7573 92.016 78.7173 91.632 79.4 90.864C80.1253 90.096 80.488 89.072 80.488 87.792C80.488 86.1707 79.9547 84.976 78.888 84.208C77.864 83.44 76.1787 83.056 73.832 83.056H71.592V72.88H73.768C75.3893 72.9227 76.7547 72.6667 77.864 72.112C79.016 71.5147 79.592 70.3413 79.592 68.592C79.592 67.2693 79.272 66.288 78.632 65.648C77.992 64.9653 77.1173 64.624 76.008 64.624C74.7707 64.624 73.8533 65.072 73.256 65.968C72.7013 66.8213 72.3813 67.888 72.296 69.168H60.072Z" fill="#2EA0C5"/>
</svg>
