<svg width="24" height="25" viewBox="0 0 24 25" fill="none" xmlns="http://www.w3.org/2000/svg">
<g clip-path="url(#clip0_1661_1775)">
<path d="M13.7131 10.9029L19.6803 4.11027C19.9641 3.78718 19.7347 3.28027 19.3047 3.28027H19.0494C18.9056 3.28027 18.7688 3.34217 18.6738 3.45016L13.426 9.42006C13.2122 9.66327 12.8271 9.6422 12.6411 9.37711L8.51305 3.49311C8.41945 3.3597 8.26671 3.28027 8.10374 3.28027H3.96946C3.56469 3.28027 3.32767 3.73613 3.56016 4.06746L9.80391 12.9659C9.93643 13.1547 9.92252 13.4097 9.77024 13.5831L3.73703 20.4502C3.45318 20.7733 3.6826 21.2802 4.11265 21.2802H4.36776C4.51162 21.2802 4.64851 21.2183 4.74344 21.1102L10.3133 14.7685C10.527 14.5252 10.9122 14.5461 11.0982 14.8113L15.4875 21.0674C15.5811 21.2008 15.7339 21.2802 15.8968 21.2802H20.9928" fill="#2EA0C5"/>
</g>
<defs>
<clipPath id="clip0_1661_1775">
<rect width="17.985" height="18" fill="white" transform="translate(3.00781 3.28027)"/>
</clipPath>
</defs>
</svg>
